<?xml version="1.0" encoding="iso-8859-1"?>
<!-- Generator: Adobe Illustrator 19.0.0, SVG Export Plug-In . SVG Version: 6.00 Build 0)  -->
<svg xmlns="http://www.w3.org/2000/svg" xmlns:xlink="http://www.w3.org/1999/xlink" version="1.1" id="Layer_1" x="0px" y="0px" viewBox="0 0 276.649 276.649" style="enable-background:new 0 0 276.649 276.649;" xml:space="preserve" width="512" height="512">
<g>
	
		<rect x="181.788" y="16.037" transform="matrix(0.7071 -0.7071 0.7071 0.7071 25.043 172.5335)" style="fill:#C4C8C4;" width="78" height="80"/>
	<g>
		<path style="fill:#E6E6E6;" d="M222.28,47.83l-10.358,10.358c-1.403,1.403-3.678,1.403-5.08,0l-4.583-4.583    c-1.403-1.403-1.403-3.678,0-5.08l10.358-10.358c1.403-1.403,3.678-1.403,5.08,0l4.583,4.583    C223.683,44.152,223.683,46.427,222.28,47.83z"/>
		<path style="fill:#E6E6E6;" d="M238.308,63.857L227.95,74.216c-1.403,1.403-3.678,1.403-5.08,0l-4.583-4.583    c-1.403-1.403-1.403-3.678,0-5.08l10.358-10.358c1.403-1.403,3.678-1.403,5.08,0l4.583,4.583    C239.71,60.18,239.71,62.455,238.308,63.857z"/>
	</g>
	<path style="fill:#32A5B9;" d="M235.191,121.893L117.596,239.488l-20.291,20.291c-22.26,22.26-58.35,22.26-80.61,0l0,0   c-22.26-22.26-22.26-58.35,0-80.61l89.095-89.095l48.79-48.79L235.191,121.893z"/>
	<path style="fill:#2B8A9A;" d="M126.691,230.393l-9.095,9.095l-20.291,20.291c-22.26,22.26-58.35,22.26-80.61,0l0,0   c-22.26-22.26-22.26-58.35,0-80.61l89.095-89.095l20.901-20.901L126.691,230.393z"/>
	<path style="fill:#1C7287;" d="M44.718,230.693c-5.858-5.858-5.858-15.355,0-21.213l89.095-89.095   c5.858-5.858,15.355-5.858,21.213,0c5.858,5.858,5.858,15.355,0,21.213l-89.095,89.095C60.074,236.55,50.576,236.55,44.718,230.693   z"/>
	<path style="fill:#165C6C;" d="M44.718,230.693c-5.858-5.858-5.858-15.355,0-21.213l81.972-81.972l0,42.426l-60.759,60.759   C60.074,236.55,50.576,236.55,44.718,230.693z"/>
</g>















</svg>
